<?xml version="1.0" encoding="UTF-8"?>
<svg width="9px" height="14px" viewBox="0 0 9 14" version="1.1" xmlns="http://www.w3.org/2000/svg" xmlns:xlink="http://www.w3.org/1999/xlink">
    <!-- Generator: Sketch 55.1 (78136) - https://sketchapp.com -->
    <title>Shape</title>
    <desc>Created with Sketch.</desc>
    <g id="Tabs" stroke="none" stroke-width="1" fill="none" fill-rule="evenodd">
        <g id="7.2.3-events" transform="translate(-693.000000, -611.000000)" fill="#005BA2" fill-rule="nonzero" stroke="#005BA2" stroke-width="0.2">
            <g id="Group-29" transform="translate(-76.000000, 101.000000)">
                <g id="Group-6-Copy-3" transform="translate(755.000000, 506.000000)">
                    <g id="60-min-event_CHAN-Copy-2">
                        <g id="Group-32" transform="translate(1.000000, 1.000000)">
                            <path d="M15.1892886,10.70193 L15.1892886,16.3900433 C15.189308,16.5162539 15.2647971,16.6302849 15.3811501,16.6798621 C15.4975031,16.7294392 15.6322847,16.7050029 15.723708,16.6177553 L17.9491387,14.4932833 L20.1745695,16.6177553 C20.2659721,16.7051908 20.4008769,16.7297446 20.5173451,16.6801436 C20.6338132,16.6305425 20.7093443,16.5163689 20.7092597,16.3900433 L20.7092597,10.5361779 C21.4531196,9.82764954 21.8747489,8.84689054 21.87655,7.82092434 C21.87655,5.71405866 20.1148033,4 17.9493193,4 C16.6073423,3.99510974 15.354611,4.67003003 14.6228646,5.79218411 C14.134593,6.48541396 13.9333932,7.30432469 14.0192652,8.24891631 C14.1051372,9.19350792 14.495145,10.0111791 15.1892886,10.70193 Z M20.0772915,15.6521067 L18.1678448,13.8292845 C18.0456619,13.7126359 17.853067,13.7126359 17.730884,13.8292845 L15.8214373,15.6521067 L15.8214373,11.0306423 C17.1225494,11.8452505 18.7762246,11.8452505 20.0773366,11.0306423 L20.0772915,15.6521067 Z M17.9493193,4.63020867 C19.766318,4.63020867 21.2445818,6.06145802 21.2445818,7.82069919 C21.2445818,9.57994036 19.766318,11.0111897 17.9493193,11.0111897 C16.1323205,11.0111897 14.6540567,9.57994036 14.6540567,7.82069919 C14.6540567,6.06145802 16.1323205,4.63020867 17.9493193,4.63020867 Z" id="Shape"></path>
                        </g>
                    </g>
                </g>
            </g>
        </g>
    </g>
</svg>